REM DIRINDEX 1\2,1\3,1\4,1\5
REM DIRNAME "folder01","folder02","folder03","folder04","folder05"
TITLE ""
FILE "1Q_t_1288-1300.mp3" MP3
  TRACK 01 AUDIO
    TITLE "0:"
    INDEX 01 00:00:00
  TRACK 02 AUDIO
    TITLE "3:cjc172_4835"
    INDEX 01 00:00:10
  TRACK 03 AUDIO
    TITLE "0:"
    INDEX 01 00:01:33
  TRACK 04 AUDIO
    TITLE "4:cjc172_4836"
    INDEX 01 00:01:43
  TRACK 05 AUDIO
    TITLE "0:"
    INDEX 01 00:03:75
  TRACK 06 AUDIO
    TITLE "5:cjc172_4837"
    INDEX 01 00:04:06
  TRACK 07 AUDIO
    TITLE "0:"
    INDEX 01 00:09:48
  TRACK 08 AUDIO
    TITLE "3:cjc172_4838"
    INDEX 01 00:10:19
  TRACK 09 AUDIO
    TITLE "0:"
    INDEX 01 00:11:28
  TRACK 10 AUDIO
    TITLE "4:cjc172_4839"
    INDEX 01 00:11:34
  TRACK 11 AUDIO
    TITLE "0:"
    INDEX 01 00:14:40
  TRACK 12 AUDIO
    TITLE "5:cjc172_4840"
    INDEX 01 00:14:48
  TRACK 13 AUDIO
    TITLE "0:"
    INDEX 01 00:20:29
  TRACK 14 AUDIO
    TITLE "3:cjc172_4841"
    INDEX 01 00:20:72
  TRACK 15 AUDIO
    TITLE "0:"
    INDEX 01 00:22:43
  TRACK 16 AUDIO
    TITLE "4:cjc172_4842"
    INDEX 01 00:22:51
  TRACK 17 AUDIO
    TITLE "0:"
    INDEX 01 00:25:10
  TRACK 18 AUDIO
    TITLE "5:cjc172_4843"
    INDEX 01 00:25:16
  TRACK 19 AUDIO
    TITLE "0:"
    INDEX 01 00:31:05
  TRACK 20 AUDIO
    TITLE "3:cjc172_4844"
    INDEX 01 00:31:48
  TRACK 21 AUDIO
    TITLE "0:"
    INDEX 01 00:32:71
  TRACK 22 AUDIO
    TITLE "4:cjc172_4845"
    INDEX 01 00:33:02
  TRACK 23 AUDIO
    TITLE "0:"
    INDEX 01 00:34:33
  TRACK 24 AUDIO
    TITLE "5:cjc172_4846"
    INDEX 01 00:34:39
  TRACK 25 AUDIO
    TITLE "0:"
    INDEX 01 00:40:43
  TRACK 26 AUDIO
    TITLE "3:cjc172_4847"
    INDEX 01 00:41:13
  TRACK 27 AUDIO
    TITLE "0:"
    INDEX 01 00:42:36
  TRACK 28 AUDIO
    TITLE "4:cjc172_4848"
    INDEX 01 00:42:42
  TRACK 29 AUDIO
    TITLE "0:"
    INDEX 01 00:46:36
  TRACK 30 AUDIO
    TITLE "5:cjc172_4849"
    INDEX 01 00:46:44
  TRACK 31 AUDIO
    TITLE "0:"
    INDEX 01 00:53:22
  TRACK 32 AUDIO
    TITLE "3:cjc172_4850"
    INDEX 01 00:53:67
  TRACK 33 AUDIO
    TITLE "0:"
    INDEX 01 00:54:65
  TRACK 34 AUDIO
    TITLE "4:cjc172_4851"
    INDEX 01 00:55:03
  TRACK 35 AUDIO
    TITLE "0:"
    INDEX 01 00:56:62
  TRACK 36 AUDIO
    TITLE "5:cjc172_4852"
    INDEX 01 00:56:68
  TRACK 37 AUDIO
    TITLE "0:"
    INDEX 01 01:04:26
  TRACK 38 AUDIO
    TITLE "3:cjc172_4853"
    INDEX 01 01:04:73
  TRACK 39 AUDIO
    TITLE "0:"
    INDEX 01 01:06:15
  TRACK 40 AUDIO
    TITLE "4:cjc172_4854"
    INDEX 01 01:06:23
  TRACK 41 AUDIO
    TITLE "0:"
    INDEX 01 01:08:69
  TRACK 42 AUDIO
    TITLE "5:cjc172_4855"
    INDEX 01 01:08:75
  TRACK 43 AUDIO
    TITLE "0:"
    INDEX 01 01:16:12
  TRACK 44 AUDIO
    TITLE "3:cjc172_4856"
    INDEX 01 01:16:60
  TRACK 45 AUDIO
    TITLE "0:"
    INDEX 01 01:18:06
  TRACK 46 AUDIO
    TITLE "4:cjc172_4857"
    INDEX 01 01:18:10
  TRACK 47 AUDIO
    TITLE "0:"
    INDEX 01 01:19:61
  TRACK 48 AUDIO
    TITLE "5:cjc172_4858"
    INDEX 01 01:19:67
  TRACK 49 AUDIO
    TITLE "0:"
    INDEX 01 01:26:31
  TRACK 50 AUDIO
    TITLE "3:cjc172_4859"
    INDEX 01 01:26:75
  TRACK 51 AUDIO
    TITLE "0:"
    INDEX 01 01:28:09
  TRACK 52 AUDIO
    TITLE "4:cjc172_4860"
    INDEX 01 01:28:19
  TRACK 53 AUDIO
    TITLE "0:"
    INDEX 01 01:29:26
  TRACK 54 AUDIO
    TITLE "5:cjc172_4861"
    INDEX 01 01:29:34
  TRACK 55 AUDIO
    TITLE "0:"
    INDEX 01 01:35:17
  TRACK 56 AUDIO
    TITLE "3:cjc172_4862"
    INDEX 01 01:35:62
  TRACK 57 AUDIO
    TITLE "0:"
    INDEX 01 01:36:71
  TRACK 58 AUDIO
    TITLE "4:cjc172_4863"
    INDEX 01 01:37:06
  TRACK 59 AUDIO
    TITLE "0:"
    INDEX 01 01:38:05
  TRACK 60 AUDIO
    TITLE "5:cjc172_4864"
    INDEX 01 01:38:13
  TRACK 61 AUDIO
    TITLE "0:"
    INDEX 01 01:43:52
  TRACK 62 AUDIO
    TITLE "3:cjc172_4865"
    INDEX 01 01:44:18
  TRACK 63 AUDIO
    TITLE "0:"
    INDEX 01 01:45:70
  TRACK 64 AUDIO
    TITLE "4:cjc172_4866"
    INDEX 01 01:46:03
  TRACK 65 AUDIO
    TITLE "0:"
    INDEX 01 01:47:22
  TRACK 66 AUDIO
    TITLE "5:cjc172_4867"
    INDEX 01 01:47:28
  TRACK 67 AUDIO
    TITLE "0:"
    INDEX 01 01:51:61
  TRACK 68 AUDIO
    TITLE "3:cjc172_4868"
    INDEX 01 01:52:29
  TRACK 69 AUDIO
    TITLE "0:"
    INDEX 01 01:53:64
  TRACK 70 AUDIO
    TITLE "4:cjc172_4869"
    INDEX 01 01:53:70
  TRACK 71 AUDIO
    TITLE "0:"
    INDEX 01 01:56:11
  TRACK 72 AUDIO
    TITLE "5:cjc172_4870"
    INDEX 01 01:56:17
  TRACK 73 AUDIO
    TITLE "0:"
    INDEX 01 02:01:16
  TRACK 74 AUDIO
    TITLE "2:cjc172_4871"
    INDEX 01 02:01:61
  TRACK 75 AUDIO
    TITLE "0:"
    INDEX 01 02:02:66
  TRACK 76 AUDIO
    TITLE "3:cjc172_4872"
    INDEX 01 02:03:35
  TRACK 77 AUDIO
    TITLE "0:"
    INDEX 01 02:04:42
  TRACK 78 AUDIO
    TITLE "4:cjc172_4873"
    INDEX 01 02:04:52
  TRACK 79 AUDIO
    TITLE "0:"
    INDEX 01 02:07:25
  TRACK 80 AUDIO
    TITLE "5:cjc172_4874"
    INDEX 01 02:07:30
  TRACK 81 AUDIO
    TITLE "0:"
    INDEX 01 02:12:32
